# xmcd CD database file
#
# Track frame offsets:
#	150
#	20163
#	39540
#	45713
#	63813
#	84068
#	105224
#	132562
#	157099
#	180597
#	205824
#	222087
#	237407
#	253899
#	277418
#	298037
#
# Disc length: 4400 seconds
#
# Revision: 7
# Processed by: cddbd v1.5.2PL0 Copyright (c) Steve Scherf et al.
# Submitted via: CDex 1.51
#
DISCID=ed112e10
DTITLE=Tiefschwarz - Misch Masch CD1
DYEAR=2004
DGENRE=House
TTITLE0=Ande Kraml - Safari
TTITLE1=Mathew Jonson - Folding Space
TTITLE2=Sleeparchive - Elephant Island
TTITLE3=Dominik Eulberg - Adler
TTITLE4=Temptation - Sound Dealers
TTITLE5=Max Durante and Keith Tucker - Digital System
TTITLE6=Think Twice - ITWFM (The Wannabe Lost On The Forbidden Planet Mix)
TTITLE7=Drama Society feat. Turner - Crying Hero (Tiga Remix)
TTITLE8=Mylo - Drop The Pressure (Riton Remix)
TTITLE9=Kiki - Run With Me
TTITLE10=Mathew Jonson - Decompression
TTITLE11=Drama Society - Papa Luciani's Strange Death
TTITLE12=Code 6 - Quad 1
TTITLE13=Derrick May - The Dance
TTITLE14=Severed Heads - Dead Eyes Opened (Joakim Edit)
TTITLE15=Popular Computer - I Can't Forget You
EXTD=YEAR: 2004
EXTT0=
EXTT1=
EXTT2=
EXTT3=
EXTT4=
EXTT5=
EXTT6=
EXTT7=
EXTT8=
EXTT9=
EXTT10=
EXTT11=
EXTT12=
EXTT13=
EXTT14=
EXTT15=
PLAYORDER=
